<?xml version="1.0" encoding="iso-8859-1"?>
<!-- Generator: Adobe Illustrator 19.0.0, SVG Export Plug-In . SVG Version: 6.00 Build 0)  -->
<svg version="1.1" id="Layer_1" xmlns="http://www.w3.org/2000/svg" xmlns:xlink="http://www.w3.org/1999/xlink" x="0px" y="0px"
	 viewBox="0 0 511.999 511.999" style="enable-background:new 0 0 511.999 511.999;" xml:space="preserve">
<rect x="343.279" y="248.034" transform="matrix(0.3919 -0.92 0.92 0.3919 -81.5436 557.7216)" style="fill:#7C532A;" width="75.691" height="185.023"/>
<circle style="fill:#F7DBBA;" cx="466.238" cy="376.818" r="37.846"/>
<circle style="fill:#E3A55E;" cx="466.249" cy="377.901" r="21.025"/>
<circle style="fill:#F7DBBA;" cx="466.249" cy="377.901" r="12.615"/>
<rect x="92.2" y="247.282" transform="matrix(0.4117 0.9113 -0.9113 0.4117 386.1628 81.3847)" style="fill:#7C532A;" width="75.69" height="185.021"/>
<circle style="fill:#F7DBBA;" cx="45.753" cy="377.89" r="37.846"/>
<circle style="fill:#E3A55E;" cx="45.744" cy="377.901" r="21.025"/>
<circle style="fill:#F7DBBA;" cx="45.744" cy="377.901" r="12.615"/>
<rect x="218.148" y="352.67" style="fill:#7C532A;" width="75.692" height="113.537"/>
<circle style="fill:#F7DBBA;" cx="255.994" cy="466.207" r="37.846"/>
<circle style="fill:#E3A55E;" cx="255.994" cy="466.207" r="21.025"/>
<circle style="fill:#F7DBBA;" cx="255.994" cy="466.207" r="12.615"/>
<path style="fill:#E3451E;" d="M302.254,150.822L255.998,7.849l-79.897,168.204l-33.744-15.231
	c-12.557,26.658-20.922,51.369-20.922,69.897c0,74.317,60.246,134.563,134.563,134.563s134.563-60.246,134.563-134.563
	c0-28.514-19.809-71.668-44.226-114.034L302.254,150.822z"/>
<path style="fill:#FCD110;" d="M197.127,281.179c0-32.514,58.871-109.332,58.871-109.332s58.871,76.819,58.871,109.332
	s-26.357,58.871-58.871,58.871S197.127,313.692,197.127,281.179z"/>
<path style="fill:#FFE987;" d="M230.768,289.589c0-13.935,25.231-46.256,25.231-46.256s25.231,32.321,25.231,46.256
	s-11.296,25.231-25.231,25.231C242.064,314.82,230.768,303.523,230.768,289.589z"/>
<path d="M508.665,359.739c-4.561-11.331-13.263-20.208-24.501-24.994l-99.716-42.474c8.969-18.641,13.999-39.52,13.999-61.554
	c0-26.15-15.234-65.84-45.279-117.971c-2.35-4.076-7.935-5.183-11.659-2.297l-35.207,27.265L287.99,81.112
	c-1.34-4.142-5.783-6.416-9.928-5.075c-4.143,1.34-6.415,5.785-5.074,9.928l21.768,67.281c1.652,5.106,8.079,7.096,12.329,3.807
	l36.892-28.569c25.346,45.219,38.702,80.458,38.702,102.233c0,69.851-56.828,126.678-126.678,126.678
	s-126.678-56.828-126.678-126.678c0-14.412,5.692-34.401,16.931-59.489l26.608,12.01c3.915,1.766,8.523,0.075,10.366-3.803
	l71.381-150.277l10.217,31.579c1.34,4.142,5.784,6.416,9.928,5.074c4.143-1.34,6.416-5.785,5.074-9.928L263.501,5.421
	c-2.149-6.642-11.625-7.272-14.623-0.956l-76.579,161.219l-26.696-12.05c-3.921-1.769-8.542-0.067-10.377,3.827
	c-14.381,30.531-21.674,55.179-21.674,73.257c0,21.544,4.817,41.982,13.415,60.305L26.929,336.211
	c-11.132,5.028-19.64,14.09-23.955,25.518c-4.315,11.427-3.923,23.851,1.105,34.982c7.629,16.89,24.312,26.904,41.744,26.904
	c6.286,0,12.668-1.303,18.758-4.053l131.589-59.44c0.054-0.024,0.101-0.054,0.153-0.079c4.528,2.097,9.179,3.972,13.946,5.592
	v100.567c0,25.216,20.515,45.73,45.73,45.73s45.73-20.515,45.73-45.73V365.635c3.833-1.303,7.588-2.772,11.268-4.386l135.326,57.64
	c17.78,7.678,39.271,2.789,52.102-11.659c3.287-3.702,5.952-7.94,7.891-12.493C513.103,383.5,513.227,371.07,508.665,359.739z
	 M18.449,390.22c-5.253-11.629-2.402-25.74,6.996-34.381c2.355-2.166,5.061-3.94,7.975-5.257c11.68-5.275,25.859-2.374,34.486,7.11
	c7.521,8.267,9.823,20.331,5.876,30.781c-2.827,7.487-8.402,13.425-15.694,16.718C43.03,411.992,25.249,405.276,18.449,390.22z
	 M89.56,390.975c3.171-10.557,2.452-21.771-2.13-31.915c-4.581-10.143-12.52-18.096-22.537-22.696l69.57-31.426
	c4.712,7.688,10.129,14.899,16.166,21.536l-18.248,8.243c-3.969,1.792-5.733,6.462-3.94,10.431c1.768,3.915,6.512,5.711,10.431,3.94
	l23.869-10.782c5.131,4.454,10.584,8.546,16.317,12.24L89.56,390.975z M255.998,496.164c-16.521,0-29.961-13.441-29.961-29.961
	c0-16.521,13.441-29.961,29.961-29.961s29.961,13.441,29.961,29.961C285.96,482.724,272.519,496.164,255.998,496.164z
	 M285.96,431.698c-1.653-1.437-3.408-2.756-5.256-3.949v-24.624c0-4.354-3.53-7.885-7.885-7.885s-7.885,3.53-7.885,7.885v18.229
	c-2.891-0.575-5.878-0.883-8.936-0.883c-11.454,0-21.93,4.243-29.961,11.227v-61.714c1.741,0.374,3.492,0.721,5.256,1.031v32.111
	c0,4.354,3.53,7.885,7.885,7.885s7.885-3.53,7.885-7.885v-30.249c2.956,0.184,5.934,0.288,8.936,0.288
	c10.276,0,20.297-1.104,29.961-3.18V431.698z M340.367,345.417c0.27,0.155,0.548,0.3,0.841,0.425l43.496,18.527
	c3.955,1.685,8.66-0.212,10.343-4.164c1.706-4.006-0.158-8.637-4.164-10.343l-36.994-15.758
	c8.756-8.296,16.459-17.691,22.894-27.958l69.431,29.573c-3.467,1.683-6.668,3.772-9.555,6.215l-24.281-10.342
	c-4.005-1.706-8.637,0.158-10.343,4.164c-1.707,4.006,0.158,8.637,4.164,10.343l20.052,8.542c-0.759,1.374-1.455,2.792-2.078,4.257
	c-4.362,10.239-4.839,21.466-1.44,31.952l-91.74-39.076C334.202,349.776,337.331,347.656,340.367,345.417z M493.808,388.558
	c-3.136,7.363-8.952,13.063-16.376,16.053c-7.423,2.988-15.564,2.907-22.925-0.226c-0.002-0.001-0.004-0.002-0.005-0.003
	c-7.363-3.136-13.063-8.952-16.053-16.376c-2.989-7.424-2.908-15.567,0.229-22.93c3.481-8.174,10.514-14.433,19.023-16.98
	c9.646-2.888,20.361-0.594,28.017,5.934C495.565,362.426,498.873,376.667,493.808,388.558z"/>
<path d="M108.397,322.483l-22.993,10.386c-3.969,1.792-5.733,6.462-3.94,10.431c1.768,3.915,6.512,5.711,10.431,3.94l22.993-10.385
	c3.969-1.792,5.733-6.462,3.94-10.431C117.036,322.454,112.367,320.69,108.397,322.483z"/>
<path d="M255.998,163.962c-2.453,0-4.766,1.142-6.258,3.089c-6.192,8.08-60.498,79.928-60.498,114.128
	c0,36.809,29.947,66.756,66.756,66.756s66.756-29.947,66.756-66.756c0-34.2-54.306-106.048-60.498-114.128
	C260.765,165.103,258.452,163.962,255.998,163.962z M255.998,332.166c-28.114,0-50.987-22.872-50.987-50.987
	c0-21.704,32.532-70.828,50.988-96.145c18.456,25.31,50.986,74.426,50.986,96.145C306.985,309.293,284.112,332.166,255.998,332.166z
	"/>
<path d="M249.783,238.482c-4.492,5.755-26.9,35.262-26.9,51.108c0,18.26,14.856,33.115,33.115,33.115
	c18.26,0,33.115-14.856,33.115-33.115c0-15.845-22.408-45.353-26.9-51.108C259.107,234.502,252.891,234.502,249.783,238.482z
	 M273.344,289.589c0,9.564-7.781,17.346-17.346,17.346s-17.346-7.782-17.346-17.346c0-5.655,8.173-20.025,17.346-33.018
	C265.172,269.564,273.344,283.935,273.344,289.589z"/>
<g>
</g>
<g>
</g>
<g>
</g>
<g>
</g>
<g>
</g>
<g>
</g>
<g>
</g>
<g>
</g>
<g>
</g>
<g>
</g>
<g>
</g>
<g>
</g>
<g>
</g>
<g>
</g>
<g>
</g>
</svg>
